<svg width="40" height="40" viewBox="0 0 40 40" xmlns="http://www.w3.org/2000/svg">
<g id="Bookmark">
<path id="Rectangle 1" d="M6.66602 15C6.66602 10.286 6.66602 7.92893 8.13048 6.46447C9.59495 5 11.952 5 16.666 5H23.3327C28.0467 5 30.4038 5 31.8682 6.46447C33.3327 7.92893 33.3327 10.286 33.3327 15V26.3793C33.3327 30.8515 33.3327 33.0876 31.9255 33.7715C30.5184 34.4554 28.7601 33.0739 25.2436 30.3109L24.1182 29.4267C22.1409 27.8731 21.1522 27.0963 19.9993 27.0963C18.8465 27.0963 17.8578 27.8731 15.8805 29.4267L14.7551 30.3109C11.2386 33.0739 9.48033 34.4554 8.07317 33.7715C6.66602 33.0876 6.66602 30.8515 6.66602 26.3793V15Z" stroke-width="2" />
</g>
</svg>
