<svg width="45" height="45" viewBox="0 0 45 45" fill="none" xmlns="http://www.w3.org/2000/svg">
<g id="Group 131">
<rect id="Rectangle" x="1" y="1" width="43" height="43" rx="19" stroke="black" stroke-width="2"/>
<path id="Subtract" fill-rule="evenodd" clip-rule="evenodd" d="M26.1269 8.25048C25.4259 8.11547 24.5175 8 23.5166 8C16.0516 8 10 14.0516 10 21.5166C10 28.9817 16.0516 35.0333 23.5166 35.0333C29.4393 35.0333 34.4911 31.224 36.3179 25.9218L36.3395 25.8597C36.521 25.3411 37.0534 23.8196 36.9956 20.5001H26.3338L29.842 16.1702L30.4265 15.4609L31.6175 16.385L32.0074 13.5426L32.3222 11.2466L32.6931 8.54263L29.9749 9.65134L27.9086 10.4942L25.3636 11.5323L26.4042 12.3398L25.4631 13.4942L19.5581 20.5267C19.5133 20.5768 19.4701 20.6283 19.4285 20.6811L19.4127 20.6999L19.4134 20.7004C18.9881 21.2484 18.735 21.9365 18.735 22.6838C18.735 24.4469 20.1442 25.8809 21.8977 25.9209V25.9218H30.457C28.9959 28.187 26.4503 29.6869 23.5543 29.6869C19.0212 29.6869 15.3464 26.0121 15.3464 21.479C15.3464 17.5504 18.1065 14.2664 21.7934 13.4605L26.1269 8.25048Z" fill="black"/>
</g>
</svg>
