<svg width="359" height="359" viewBox="0 0 359 359" fill="none" xmlns="http://www.w3.org/2000/svg">
<path fill-rule="evenodd" clip-rule="evenodd" d="M214.167 3.32706C204.858 1.53375 192.792 0 179.5 0C80.3652 0 0 80.3652 0 179.5C0 278.635 80.3652 359 179.5 359C258.152 359 325.239 308.413 349.5 238L349.786 237.176C352.197 230.288 359.267 210.083 358.5 166H216.912L263.5 108.5L271.263 99.0801L287.079 111.353L292.256 73.6055L296.438 43.1152L301.362 7.20605L265.266 21.9297L237.825 33.123L204.027 46.9092L217.847 57.6318L205.349 72.9629L126.931 166.354C126.336 167.019 125.763 167.702 125.21 168.403L125 168.653L125.009 168.66C119.361 175.938 116 185.076 116 195C116 218.414 134.714 237.457 158 237.988V238H271.667C252.265 268.082 218.459 288 180 288C119.801 288 71 239.199 71 179C71 126.827 107.656 83.2148 156.62 72.5135L214.167 3.32706Z" fill="black"/>
</svg>
