<svg width="22" height="22" viewBox="0 0 22 22" fill="none" xmlns="http://www.w3.org/2000/svg">
<g id="Group 67">
<path id="Subtract" d="M13.1406 0.203887C12.5694 0.0939906 11.8291 0 11.0136 0C4.93096 0 0 4.92489 0 11C0 17.0751 4.93096 22 11.0136 22C15.8394 22 19.9557 18.9 21.4442 14.585L21.4618 14.5344C21.6097 14.1124 22.0435 12.8742 21.9965 10.1727H13.3091L16.1675 6.64903L16.6438 6.07176L17.6143 6.82383L18.4907 0.441597L12.5185 2.87466L13.3664 3.53176L12.5996 4.47126L7.78807 10.1944C7.75158 10.2351 7.71641 10.277 7.6825 10.32L7.66961 10.3353L7.67015 10.3357C7.32364 10.7817 7.1174 11.3417 7.1174 11.9499C7.1174 13.3847 8.26563 14.5517 9.69439 14.5842V14.585H16.6686C15.4782 16.4284 13.404 17.649 11.0442 17.649C7.35061 17.649 4.35634 14.6584 4.35634 10.9694C4.35634 7.77211 6.60545 5.09952 9.6097 4.44372L13.1406 0.203887Z" fill="#60BF34"/>
<path id="Subtract_2" d="M21.4623 14.5344C21.6102 14.1123 22.044 12.8741 21.9969 10.1726H13.3096L7.78857 10.1943C7.75208 10.235 7.71691 10.2769 7.68299 10.3199L7.67011 10.3352C7.2038 10.9555 7.10767 11.6701 7.1179 11.9498C7.1179 13.3846 8.26612 14.5516 9.69489 14.5841L16.6691 14.5849L21.4623 14.5344Z" fill="#2651EC"/>
<path id="Subtract_3" d="M10.9824 22C15.8285 22 19.962 18.8955 21.4568 14.5743L21.4745 14.5237L16.6612 14.5743C15.4658 16.4204 13.3828 17.6428 11.0132 17.6428L10.9824 22Z" fill="#2651EC"/>
<path id="aaa" d="M0 11.0001C0 17.0752 4.93096 22.0001 11.0136 22.0001L11.0442 17.6491C7.35061 17.6491 4.35634 14.6586 4.35634 10.9695L0 11.0001Z" fill="#FBE200"/>
<g id="aaa_2">
<path d="M13.1406 0.203887C12.5694 0.0939906 11.8291 0 11.0136 0C4.93096 0 0 4.92489 0 11L4.35634 10.9694C4.35634 7.77211 6.60545 5.09952 9.6097 4.44372L13.1406 0.203887Z" fill="#E12F2F"/>
<path d="M13.1406 0.203887C12.5694 0.0939906 11.8291 0 11.0136 0C4.93096 0 0 4.92489 0 11L4.35634 10.9694C4.35634 7.77211 6.60545 5.09952 9.6097 4.44372L13.1406 0.203887Z" fill="#E12F2F"/>
<path d="M13.1406 0.203887C12.5694 0.0939906 11.8291 0 11.0136 0C4.93096 0 0 4.92489 0 11L4.35634 10.9694C4.35634 7.77211 6.60545 5.09952 9.6097 4.44372L13.1406 0.203887Z" fill="#E12F2F"/>
<path d="M13.1406 0.203887C12.5694 0.0939906 11.8291 0 11.0136 0C4.93096 0 0 4.92489 0 11L4.35634 10.9694C4.35634 7.77211 6.60545 5.09952 9.6097 4.44372L13.1406 0.203887Z" fill="#E12F2F"/>
</g>
</g>
</svg>
