<svg width="35" height="29" viewBox="0 0 35 29" fill="none" xmlns="http://www.w3.org/2000/svg">
<g id="Group 81">
<path id="Vector 383" d="M17.1992 4.6001V28.0001" stroke-width="2" stroke-linecap="round"/>
<path id="Vector 388" d="M33.4004 4.6001L33.4004 28.0001" stroke-width="2" stroke-linecap="round"/>
<path id="Vector 389" d="M1 4.6001L1 28.0001" stroke-width="2" stroke-linecap="round"/>
<path id="Vector 384" d="M33.3992 27.9999C33.3992 27.9999 31.5992 24.3999 25.2992 24.3999C18.9992 24.3999 17.1992 27.9999 17.1992 27.9999" stroke-width="2" stroke-linecap="round"/>
<path id="Vector 391" d="M17.2 27.9999C17.2 27.9999 15.4 24.3999 9.1 24.3999C2.8 24.3999 1 27.9999 1 27.9999" stroke-width="2" stroke-linecap="round"/>
<path id="Vector 390" d="M33.3992 4.6C33.3992 4.6 31.5992 1 25.2992 1C18.9992 1 17.1992 4.6 17.1992 4.6" stroke-width="2" stroke-linecap="round"/>
<path id="Vector 392" d="M17.2 4.6C17.2 4.6 15.4 1 9.1 1C2.8 1 1 4.6 1 4.6" stroke-width="2" stroke-linecap="round"/>
</g>
</svg>
